:SAMPLES-PER-SECOND 30
:FRAME-RANGE 1-2045
:FULLY-SPECIFIED
:DEGREES
1598
root  35.7943 34.8917 -77.277 -179.495 13.5666 -171.506
RightUpLeg  -38.5168 22.3893 -18.9783
RightLeg  27.6228 13.4191 7.30528
RightFoot  3.28599 -3.26765 25.2541
RightToes  -5.28216e-011 1.2921e-014 -6.02303e-014
Spine  18.4794 -7.54017 -15.1001
Spine1  4.06329 -11.4504 7.14685
HEad  17.7341 -6.97168 10.62
LeftShoulder1  2.77038 -11.3207 -12.07
LeftArm  46.8554 -33.7855 -83.5945
LeftForeArm  -15.1317 -22.0266 -6.25581
LeftHand  -0.0381979 4.56123 -1.01712
RightShoulder  0.524288 -1.65442 25.321
RightArm  -30.3186 -30.5436 37.7725
RightForeArm  8.99876 39.6561 8.72292
RightHand  0.474596 5.01369 4.98114
LeftUpLeg  -26.1824 3.41147 12.2203
LeftLeg  61.2808 2.51163 5.59305
LeftFoot  -29.6574 -0.929776 -6.86822
LeftToes  9.43379e-011 5.24309e-011 -4.66411e-011
1599
root  35.2147 35.235 -76.843 -179.152 19.3585 -171.536
RightUpLeg  -38.3935 20.4497 -14.0271
RightLeg  28.4002 9.7157 5.43303
RightFoot  5.68403 -2.98057 19.9903
RightToes  -5.28216e-011 1.2921e-014 -6.02303e-014
Spine  17.9926 -8.39042 -16.6866
Spine1  3.62731 -12.7091 7.98418
HEad  18.1033 -5.73134 10.2777
LeftShoulder1  2.7446 -11.2887 -11.9205
LeftArm  47.3947 -34.2565 -84.5038
LeftForeArm  -13.5843 -20.7598 -7.02063
LeftHand  -0.0380409 4.59758 -1.40316
RightShoulder  0.414582 -2.00409 25.2892
RightArm  -32.6838 -33.2612 39.9045
RightForeArm  10.6313 41.2481 9.13554
RightHand  0.507985 4.55452 5.63002
LeftUpLeg  -24.8957 7.00151 11.3101
LeftLeg  59.4017 3.96939 7.80785
LeftFoot  -28.2342 -0.902271 -7.2119
LeftToes  9.43379e-011 5.24309e-011 -4.66411e-011
1600
root  34.8636 35.3967 -76.4133 -179.072 23.5188 -172.115
RightUpLeg  -37.3597 18.7716 -9.72229
RightLeg  32.7004 6.05602 3.94033
RightFoot  -2.63931 -1.4812 19.0648
RightToes  -5.28216e-011 1.2921e-014 -6.02303e-014
Spine  17.5956 -9.32348 -18.4265
Spine1  3.25924 -13.8536 8.32573
HEad  16.4044 -5.27759 10.0617
LeftShoulder1  2.71661 -11.3735 -11.5883
LeftArm  49.2312 -35.1499 -86.5514
LeftForeArm  -12.5804 -19.5402 -8.02318
LeftHand  -0.0340196 4.43642 -1.72961
RightShoulder  0.37222 -2.135 25.1545
RightArm  -35.703 -36.0798 41.1702
RightForeArm  11.5725 41.6407 9.20494
RightHand  0.56487 4.56957 6.28087
LeftUpLeg  -24.3223 9.46001 10.3833
LeftLeg  58.1883 4.94476 9.10778
LeftFoot  -27.3056 -0.891002 -7.51587
LeftToes  9.43379e-011 5.24309e-011 -4.66411e-011
1601
root  34.5182 35.6135 -75.8523 -179.075 27.2607 -172.618
RightUpLeg  -35.7975 16.2578 -5.13394
RightLeg  38.2778 1.51968 1.02335
RightFoot  -9.17396 -0.39359 17.3641
RightToes  -5.28216e-011 1.2921e-014 -6.02303e-014
Spine  17.1355 -9.53255 -19.2351
Spine1  4.49632 -14.3169 8.32964
HEad  12.1851 -5.97944 10.8168
LeftShoulder1  2.81688 -11.9298 -11.5661
LeftArm  52.5502 -36.5745 -89.4203
LeftForeArm  -12.1046 -18.8972 -8.67802
LeftHand  -0.0362465 4.804 -2.19344
RightShoulder  0.43403 -1.94458 25.3568
RightArm  -39.2029 -39.086 42.0406
RightForeArm  10.1839 41.7382 9.33014
RightHand  0.614928 4.61541 6.82711
LeftUpLeg  -24.0278 11.4133 9.67567
LeftLeg  56.7915 5.97008 10.2708
LeftFoot  -25.7116 -0.838221 -7.86368
LeftToes  9.43379e-011 5.24309e-011 -4.66411e-011
1602
root  34.1881 35.8793 -75.2121 -179.058 30.9551 -173.281
RightUpLeg  -34.0857 13.8703 -1.68494
RightLeg  43.7091 -2.94785 -3.30956
RightFoot  -12.7178 0.0812833 13.9251
RightToes  -5.28216e-011 1.2921e-014 -6.02303e-014
Spine  17.2312 -9.41522 -19.4347
Spine1  4.79345 -14.1788 7.56244
HEad  9.32254 -6.92122 12.274
LeftShoulder1  2.96603 -12.211 -12.2582
LeftArm  54.9231 -37.4394 -92.6189
LeftForeArm  -10.8769 -17.5298 -9.97029
LeftHand  -0.0373626 5.01718 -2.22101
RightShoulder  0.481747 -1.7829 25.1542
RightArm  -43.159 -41.3595 43.5071
RightForeArm  8.65641 39.6258 8.73511
RightHand  0.773069 5.99443 7.52326
LeftUpLeg  -23.8701 12.8354 8.87211
LeftLeg  55.0407 7.40156 11.7385
LeftFoot  -23.6652 -0.738317 -8.14226
LeftToes  9.43379e-011 5.24309e-011 -4.66411e-011
1603
root  33.9127 36.1806 -74.4922 -178.735 34.6149 -173.822
RightUpLeg  -32.5027 13.3944 -0.138626
RightLeg  48.3738 -5.19826 -6.5652
RightFoot  -14.9885 0.300428 12.5965
RightToes  -5.28216e-011 1.2921e-014 -6.02303e-014
Spine  17.0623 -9.15556 -19.6775
Spine1  5.47694 -13.9276 6.90357
HEad  7.21418 -7.30592 13.077
LeftShoulder1  3.09117 -12.3973 -12.8873
LeftArm  53.7668 -37.5597 -95.4584
LeftForeArm  -7.29031 -15.6693 -11.3904
LeftHand  -0.0408544 5.38432 -2.24646
RightShoulder  0.511831 -1.67373 24.9008
RightArm  -45.633 -41.8365 43.9504
RightForeArm  7.25939 36.0072 7.73047
RightHand  0.912898 6.85946 8.26115
LeftUpLeg  -23.9423 13.8676 8.36356
LeftLeg  52.9815 9.0939 13.1819
LeftFoot  -21.2766 -0.616423 -8.54569
LeftToes  9.43379e-011 5.24309e-011 -4.66411e-011
1604
root  33.7006 36.4291 -73.688 -178.026 37.6221 -174.429
RightUpLeg  -31.4128 13.4515 -0.295385
RightLeg  52.3254 -5.0992 -7.4148
RightFoot  -16.5569 0.436663 12.022
RightToes  -5.28216e-011 1.2921e-014 -6.02303e-014
Spine  16.916 -9.03585 -19.9732
Spine1  5.73873 -13.7511 6.25428
HEad  6.59578 -7.21419 13.1348
LeftShoulder1  3.18502 -12.5793 -13.2891
LeftArm  52.7412 -36.9004 -97.4829
LeftForeArm  -4.94722 -14.8329 -11.9177
LeftHand  -0.0445347 5.71292 -2.05737
RightShoulder  0.560306 -1.51202 24.8161
RightArm  -47.1884 -41.5622 43.29
RightForeArm  6.40238 32.0643 6.70923
RightHand  0.990762 7.53363 8.48988
LeftUpLeg  -24.8154 13.7163 7.87575
LeftLeg  51.152 11.0184 14.7531
LeftFoot  -18.7795 -0.468647 -8.92468
LeftToes  9.43379e-011 5.24309e-011 -4.66411e-011
1605
root  33.5411 36.6594 -72.8312 -177.154 40.5377 -175.113
RightUpLeg  -30.6809 13.6746 -1.97894
RightLeg  55.2345 -3.81825 -6.30345
RightFoot  -17.3706 0.499036 11.684
RightToes  -5.28216e-011 1.2921e-014 -6.02303e-014
Spine  16.1705 -8.7288 -20.4954
Spine1  6.63639 -13.4648 6.09096
HEad  6.28813 -6.12682 12.2522
LeftShoulder1  3.24062 -12.5695 -13.6887
LeftArm  53.6898 -36.1549 -98.8353
LeftForeArm  -5.1602 -15.1056 -11.7512
LeftHand  -0.0459583 5.92142 -1.87425
RightShoulder  0.553744 -1.49464 24.1125
RightArm  -50.7015 -41.0924 43.4963
RightForeArm  8.18251 29.3564 5.93317
RightHand  1.07734 8.33998 8.67866
LeftUpLeg  -25.8611 13.7691 7.39092
LeftLeg  49.223 13.0858 16.1608
LeftFoot  -16.5948 -0.27549 -8.15892
LeftToes  9.43379e-011 5.24309e-011 -4.66411e-011
1606
root  33.4396 36.8558 -71.9589 -175.718 43.3599 -175.123
RightUpLeg  -29.8759 13.7167 -4.0667
RightLeg  56.7753 -3.34758 -5.9212
RightFoot  -17.9077 0.496426 10.7487
RightToes  -5.28216e-011 1.2921e-014 -6.02303e-014
Spine  15.7336 -8.7442 -20.0921
Spine1  6.59843 -13.2582 5.57408
HEad  7.22992 -3.24414 10.5303
LeftShoulder1  3.17921 -12.294 -13.6538
LeftArm  54.1848 -34.5511 -98.6999
LeftForeArm  -6.92495 -16.1801 -10.9443
LeftHand  -0.0430014 5.89587 -1.66755
RightShoulder  0.557604 -1.44708 23.5091
RightArm  -52.1216 -41.6034 43.1857
RightForeArm  9.53025 29.6067 5.91872
RightHand  1.00347 7.64181 8.52625
LeftUpLeg  -27.0091 13.2748 7.75947
LeftLeg  46.7053 11.5753 13.2868
LeftFoot  -16.2835 -0.237658 -7.75622
LeftToes  9.43379e-011 5.24309e-011 -4.66411e-011
1607
root  33.3628 36.939 -71.118 -174.198 46.5811 -175.075
RightUpLeg  -29.1345 13.2974 -6.87694
RightLeg  57.1468 -3.62607 -6.46679
RightFoot  -17.759 0.489411 10.8551
RightToes  -5.28216e-011 1.2921e-014 -6.02303e-014
Spine  15.1723 -8.61755 -19.4617
Spine1  6.36876 -12.8902 5.28377
HEad  8.4372 1.01757 8.61846
LeftShoulder1  3.05262 -11.955 -13.2406
LeftArm  55.9769 -33.0648 -97.8938
LeftForeArm  -10.5205 -17.7884 -9.74295
LeftHand  -0.0340054 5.52735 -1.42009
RightShoulder  0.547718 -1.44515 22.9045
RightArm  -51.7001 -41.9513 41.7951
RightForeArm  11.3206 30.766 6.10154
RightHand  1.00258 7.40968 8.68458
LeftUpLeg  -28.1406 10.7218 8.68496
LeftLeg  45.0101 7.09048 7.97196
LeftFoot  -19.2913 -0.559696 -9.69743
LeftToes  9.43379e-011 5.24309e-011 -4.66411e-011
1608
root  33.2908 36.921 -70.3195 -172.458 50.4779 -174.588
RightUpLeg  -28.5193 12.4933 -10.3135
RightLeg  55.7834 -3.82081 -6.4403
RightFoot  -16.1054 0.330502 10.5517
RightToes  -5.28216e-011 1.2921e-014 -6.02303e-014
Spine  14.4959 -8.27653 -18.1868
Spine1  6.17997 -12.1789 4.92938
HEad  9.25965 6.81711 6.24749
LeftShoulder1  2.89953 -11.5115 -12.7634
LeftArm  57.4477 -32.0142 -96.6185
LeftForeArm  -13.979 -19.238 -8.60779
LeftHand  -0.0216715 4.92994 -1.42802
RightShoulder  0.544658 -1.40776 22.1147
RightArm  -51.2149 -42.0427 40.463
RightForeArm  13.6533 33.2155 6.58855
RightHand  1.03396 7.66548 8.77828
LeftUpLeg  -29.1471 7.71513 10.0538
LeftLeg  44.3298 3.83958 4.4437
LeftFoot  -21.0588 -0.859135 -11.557
LeftToes  9.43379e-011 5.24309e-011 -4.66411e-011
